<svg width="172" height="43" viewBox="0 0 172 43" fill="none" xmlns="http://www.w3.org/2000/svg">
<path d="M4.53215 34.2548C4.07891 31.9886 6.79835 29.7224 10.8775 28.5893L21.0754 5.92732C23.3416 0.71507 32.4064 -0.871268 36.9388 3.66113C41.4712 8.19352 40.3381 17.2583 39.8848 22.9238" stroke="white" stroke-width="2" stroke-linecap="round" stroke-linejoin="round"/>
<path d="M0 36.5209H13.5972C13.1439 33.8014 10.8777 33.1216 9.06479 33.1216H4.53239C2.71944 33.1216 0.453239 33.8014 0 36.5209Z" fill="#15140F"/>
<path d="M31.2733 17.2581C35.8057 13.4055 46.0036 13.4055 50.5359 17.2581C53.482 20.2041 55.7482 27.4559 56.6547 34.2545C56.6547 36.5207 55.0683 37.8804 51.669 37.8804H30.1402C26.7409 37.8804 25.1545 36.5207 25.1545 34.2545C26.061 27.4559 28.3272 20.2041 31.2733 17.2581Z" fill="#F2C300" stroke="white" stroke-width="2" stroke-linejoin="round"/>
<path d="M44.6667 20.9995H37.3333C36.597 20.9995 36 21.4472 36 21.9995C36 22.5518 36.597 22.9995 37.3333 22.9995H44.6667C45.403 22.9995 46 22.5518 46 21.9995C46 21.4472 45.403 20.9995 44.6667 20.9995Z" fill="#15140F"/>
<path d="M51.2162 41.5068C54.971 41.5068 58.0148 38.463 58.0148 34.7083C58.0148 30.9535 54.971 27.9097 51.2162 27.9097C47.4614 27.9097 44.4176 30.9535 44.4176 34.7083C44.4176 38.463 47.4614 41.5068 51.2162 41.5068Z" fill="#F2C300" stroke="white" stroke-width="2"/>
<path d="M65.8669 25.7308V7.79248H77.7857V10.6819H69.1416V15.2808H77.3042V18.1702H69.1416V22.8414H77.7857V25.7308H65.8669Z" fill="white"/>
<path d="M83.895 26.0198C82.9801 26.0198 82.1855 25.8673 81.5113 25.5623C80.8371 25.2573 80.3154 24.8239 79.9462 24.2621C79.577 23.6842 79.3924 23.018 79.3924 22.2636C79.3924 21.5412 79.5529 20.8991 79.874 20.3373C80.195 19.7594 80.6926 19.2779 81.3668 18.8926C82.041 18.5073 82.8918 18.2345 83.9191 18.0739L88.2051 17.3757V19.7835L84.5211 20.4095C83.895 20.5219 83.4295 20.7226 83.1245 21.0115C82.8195 21.3004 82.667 21.6777 82.667 22.1432C82.667 22.5926 82.8356 22.9538 83.1727 23.2267C83.5258 23.4835 83.9592 23.612 84.4729 23.612C85.1311 23.612 85.7089 23.4755 86.2066 23.2026C86.7202 22.9137 87.1135 22.5204 87.3864 22.0228C87.6753 21.5252 87.8198 20.9794 87.8198 20.3855V17.0145C87.8198 16.4527 87.5951 15.9871 87.1456 15.6179C86.7122 15.2327 86.1343 15.0401 85.412 15.0401C84.7378 15.0401 84.1358 15.2247 83.6061 15.5939C83.0924 15.947 82.7152 16.4206 82.4744 17.0145L79.898 15.7624C80.1549 15.0722 80.5562 14.4782 81.102 13.9806C81.6638 13.4669 82.3219 13.0656 83.0764 12.7767C83.8308 12.4878 84.6495 12.3433 85.5324 12.3433C86.6079 12.3433 87.5549 12.5439 88.3736 12.9452C89.1923 13.3305 89.8263 13.8763 90.2758 14.5826C90.7413 15.2728 90.9741 16.0835 90.9741 17.0145V25.7308H87.9884V23.4916L88.6626 23.4434C88.3255 24.0052 87.9241 24.4788 87.4586 24.864C86.9931 25.2332 86.4634 25.5222 85.8695 25.7308C85.2755 25.9235 84.6174 26.0198 83.895 26.0198Z" fill="white"/>
<path d="M98.8736 26.0198C97.4771 26.0198 96.2571 25.6907 95.2137 25.0326C94.1864 24.3584 93.4801 23.4514 93.0948 22.3117L95.4545 21.18C95.7916 21.9184 96.2571 22.4963 96.8511 22.9137C97.4611 23.331 98.1352 23.5397 98.8736 23.5397C99.4515 23.5397 99.909 23.4113 100.246 23.1545C100.583 22.8976 100.752 22.5605 100.752 22.1432C100.752 21.8863 100.68 21.6777 100.535 21.5171C100.407 21.3406 100.222 21.1961 99.9813 21.0837C99.7565 20.9553 99.5077 20.851 99.2348 20.7707L97.0919 20.1687C95.9842 19.8477 95.1415 19.3581 94.5636 18.7C94.0018 18.0418 93.7209 17.2633 93.7209 16.3644C93.7209 15.5618 93.9215 14.8635 94.3228 14.2696C94.7402 13.6596 95.3101 13.186 96.0324 12.8489C96.7708 12.5118 97.6135 12.3433 98.5606 12.3433C99.7966 12.3433 100.888 12.6403 101.835 13.2342C102.782 13.8281 103.457 14.6628 103.858 15.7383L101.45 16.87C101.225 16.2761 100.848 15.8025 100.318 15.4494C99.7886 15.0962 99.1947 14.9197 98.5366 14.9197C98.0068 14.9197 97.5895 15.0401 97.2845 15.2808C96.9795 15.5216 96.827 15.8346 96.827 16.2199C96.827 16.4607 96.8912 16.6694 97.0196 16.8459C97.148 17.0225 97.3246 17.167 97.5493 17.2793C97.7901 17.3917 98.063 17.4961 98.368 17.5924L100.463 18.2184C101.538 18.5394 102.365 19.021 102.943 19.6631C103.537 20.3052 103.834 21.0918 103.834 22.0228C103.834 22.8093 103.625 23.5076 103.208 24.1176C102.79 24.7115 102.213 25.177 101.474 25.5141C100.736 25.8512 99.8689 26.0198 98.8736 26.0198Z" fill="white"/>
<path d="M107.612 31.0281C107.259 31.0281 106.914 30.996 106.576 30.9318C106.239 30.8836 105.934 30.7873 105.661 30.6428V28.0183C105.87 28.0664 106.119 28.1146 106.408 28.1628C106.713 28.2109 106.994 28.235 107.251 28.235C107.973 28.235 108.495 28.0664 108.816 27.7293C109.153 27.4083 109.45 26.9749 109.707 26.4291L110.573 24.4065L110.525 27.0552L104.819 12.6322H108.214L112.211 23.2749H111.007L114.98 12.6322H118.399L112.692 27.0552C112.355 27.8899 111.946 28.6042 111.464 29.1981C110.983 29.7921 110.421 30.2415 109.779 30.5465C109.153 30.8676 108.43 31.0281 107.612 31.0281Z" fill="white"/>
<path d="M120.396 25.7308V7.79248H127.066C128.286 7.79248 129.361 8.01721 130.292 8.46668C131.239 8.90008 131.978 9.54217 132.507 10.3929C133.037 11.2277 133.302 12.247 133.302 13.4509C133.302 14.6869 133.005 15.7383 132.411 16.6052C131.833 17.472 131.047 18.1141 130.051 18.5314L134.169 25.7308H130.461L126.054 17.8572L128.173 19.1093H123.671V25.7308H120.396ZM123.671 16.2199H127.114C127.708 16.2199 128.221 16.1075 128.655 15.8828C129.088 15.642 129.425 15.313 129.666 14.8956C129.907 14.4782 130.027 13.9967 130.027 13.4509C130.027 12.8891 129.907 12.4075 129.666 12.0062C129.425 11.5888 129.088 11.2678 128.655 11.0431C128.221 10.8023 127.708 10.6819 127.114 10.6819H123.671V16.2199Z" fill="white"/>
<path d="M141.533 26.0198C140.185 26.0198 139.005 25.7148 137.994 25.1048C136.983 24.4948 136.196 23.6681 135.634 22.6247C135.072 21.5813 134.791 20.4256 134.791 19.1575C134.791 17.8412 135.072 16.6774 135.634 15.6661C136.212 14.6388 136.991 13.8281 137.97 13.2342C138.965 12.6403 140.073 12.3433 141.293 12.3433C142.32 12.3433 143.219 12.5118 143.989 12.8489C144.776 13.186 145.442 13.6515 145.988 14.2455C146.534 14.8394 146.951 15.5216 147.24 16.2921C147.529 17.0466 147.673 17.8653 147.673 18.7481C147.673 18.9729 147.657 19.2056 147.625 19.4464C147.609 19.6872 147.569 19.8959 147.505 20.0724H137.392V17.6646H145.723L144.23 18.7963C144.375 18.0579 144.334 17.3997 144.11 16.8219C143.901 16.244 143.548 15.7865 143.05 15.4494C142.569 15.1123 141.983 14.9437 141.293 14.9437C140.634 14.9437 140.048 15.1123 139.535 15.4494C139.021 15.7704 138.628 16.252 138.355 16.8941C138.098 17.5201 138.002 18.2826 138.066 19.1815C138.002 19.9841 138.106 20.6985 138.379 21.3245C138.668 21.9345 139.085 22.408 139.631 22.7451C140.193 23.0822 140.835 23.2508 141.557 23.2508C142.28 23.2508 142.89 23.0983 143.387 22.7933C143.901 22.4883 144.302 22.079 144.591 21.5653L147.144 22.8174C146.887 23.4434 146.485 23.9972 145.94 24.4788C145.394 24.9603 144.744 25.3376 143.989 25.6105C143.251 25.8833 142.432 26.0198 141.533 26.0198Z" fill="white"/>
<path d="M150.064 25.7308V12.6322H153.026V15.2086L152.785 14.7511C153.09 13.9646 153.588 13.3706 154.278 12.9693C154.984 12.552 155.803 12.3433 156.734 12.3433C157.697 12.3433 158.548 12.552 159.286 12.9693C160.041 13.3867 160.627 13.9726 161.044 14.727C161.461 15.4654 161.67 16.3242 161.67 17.3034V25.7308H158.516V18.0499C158.516 17.472 158.404 16.9744 158.179 16.557C157.954 16.1396 157.641 15.8186 157.24 15.5939C156.854 15.3531 156.397 15.2327 155.867 15.2327C155.354 15.2327 154.896 15.3531 154.495 15.5939C154.094 15.8186 153.78 16.1396 153.556 16.557C153.331 16.9744 153.219 17.472 153.219 18.0499V25.7308H150.064Z" fill="white"/>
<path d="M170.309 25.8753C168.832 25.8753 167.684 25.474 166.866 24.6714C166.063 23.8527 165.662 22.705 165.662 21.2282V15.4494H163.398V12.6322H163.639C164.281 12.6322 164.779 12.4637 165.132 12.1266C165.485 11.7895 165.662 11.2999 165.662 10.6578V9.64651H168.816V12.6322H171.826V15.4494H168.816V21.0596C168.816 21.4931 168.888 21.8623 169.033 22.1673C169.193 22.4722 169.434 22.705 169.755 22.8655C170.092 23.026 170.518 23.1063 171.031 23.1063C171.144 23.1063 171.272 23.0983 171.416 23.0822C171.577 23.0662 171.729 23.0501 171.874 23.0341V25.7308C171.649 25.763 171.392 25.7951 171.103 25.8272C170.814 25.8593 170.55 25.8753 170.309 25.8753Z" fill="white"/>
<path d="M167.581 30.9995H65.4189C64.6353 30.9995 64 31.5965 64 32.3328V32.6662C64 33.4026 64.6353 33.9995 65.4189 33.9995H167.581C168.365 33.9995 169 33.4026 169 32.6662V32.3328C169 31.5965 168.365 30.9995 167.581 30.9995Z" fill="#F2C300"/>
</svg>
